<svg id="Capa_1" data-name="Capa 1" xmlns="http://www.w3.org/2000/svg" viewBox="0 0 181.45 71.02"><title>brand-blackcolor</title><polygon points="155.27 46.78 155.27 25.1 149.37 25.1 149.37 51.87 173.03 51.87 173.03 46.78 155.27 46.78" style="fill:#262424"/><polygon points="139.99 46.78 120.87 46.78 120.89 40.82 137.73 40.82 137.73 35.73 120.89 35.73 120.87 30.19 138.88 30.19 138.88 25.1 114.97 25.1 114.97 51.87 139.99 51.87 139.99 46.78" style="fill:#262424"/><path d="M465.85,180.05c0-2.73-1.21-4.11-3.58-5.79,1.11-1.14,1.66-3.58,1.66-5.26,0-4.77-3.43-7.23-9.38-7.23H437.19v26.77H455.4C461.71,188.55,465.85,185.23,465.85,180.05Zm-22.75-13.19h11.75c2.42,0,3.13.77,3.13,2.32a3,3,0,0,1-3.13,3.17H443.09Zm0,10.58h13c2.42,0,3.73.42,3.73,2.56s-1.31,3.45-3.73,3.45h-13Z" transform="translate(-361.22 -136.68)" style="fill:#262424"/><path d="M427.71,175.23c0-8.09-6.56-14-15.38-14s-15.34,5.91-15.34,14,6.51,14,15.34,14S427.71,183.32,427.71,175.23Zm-24.72,0c0-5.23,4-8.87,9.33-8.87s9.33,3.63,9.33,8.87-4,8.82-9.33,8.82S403,180.46,403,175.23Z" transform="translate(-361.22 -136.68)" style="fill:#262424"/><path d="M374.13,161.78H361.22v26.77h12.92c9.73,0,15.54-5.64,15.54-13.32S383.62,161.78,374.13,161.78Zm0,21.68h-7V166.87h7c6.05,0,9.54,3.46,9.54,8.32S380.44,183.46,374.13,183.46Z" transform="translate(-361.22 -136.68)" style="fill:#262424"/><path d="M540.35,186.07h.46l.48.7h.38l-.54-.74a.59.59,0,0,0,.47-.58c0-.38-.32-.59-.71-.59H540v1.91h.31Zm0-.94h.51c.26,0,.43.11.43.34s-.15.35-.43.35h-.51Z" transform="translate(-361.22 -136.68)" style="fill:#262424"/><path d="M540.76,187.76a1.91,1.91,0,0,0,1.91-1.92h0a1.9,1.9,0,1,0-3.81,0h0A1.9,1.9,0,0,0,540.76,187.76Zm-1.68-1.92a1.68,1.68,0,1,1,3.37,0h0a1.68,1.68,0,1,1-3.37,0Z" transform="translate(-361.22 -136.68)" style="fill:#262424"/><path d="M417.32,200v7.44h-2.05V200h-2.84v-1.89h7.74V200Z" transform="translate(-361.22 -136.68)" style="fill:#262424"/><path d="M423.41,207.42v-9.34h7v1.83h-5v1.89h4.4v1.83h-4.4v2h5.07v1.83Z" transform="translate(-361.22 -136.68)" style="fill:#262424"/><path d="M442.35,207.7l-1-.92a5.09,5.09,0,0,1-2.77.8,4.79,4.79,0,0,1-4.95-4.8v0a5,5,0,0,1,9.93,0v0a4.72,4.72,0,0,1-.83,2.68l1,.81Zm-1-4.95a2.84,2.84,0,0,0-2.83-2.94,2.79,2.79,0,0,0-2.8,2.91v0a2.84,2.84,0,0,0,2.83,2.94,3,3,0,0,0,1.23-.25l-1.52-1.29,1.31-1.47,1.53,1.39a3.1,3.1,0,0,0,.25-1.28Z" transform="translate(-361.22 -136.68)" style="fill:#262424"/><path d="M450.92,207.57c-2.51,0-4-1.4-4-4.15v-5.34h2.05v5.28c0,1.52.76,2.31,2,2.31s2-.76,2-2.24v-5.35H455v5.27C455,206.18,453.42,207.57,450.92,207.57Z" transform="translate(-361.22 -136.68)" style="fill:#262424"/><path d="M458.87,207.42v-9.34h2.05v9.34Z" transform="translate(-361.22 -136.68)" style="fill:#262424"/><path d="M464.93,207.42v-9.34H467v7.47h4.66v1.87Z" transform="translate(-361.22 -136.68)" style="fill:#262424"/><path d="M481.8,207.42l-.85-2.09H477l-.85,2.09h-2.09l4-9.41h1.89l4,9.41ZM479,200.48l-1.24,3h2.48Z" transform="translate(-361.22 -136.68)" style="fill:#262424"/><path d="M401,151.88v-9.75l-4.2,6.38h-.09l-4.16-6.32v9.69H389.3V136.93h3.54l3.93,6.32,3.93-6.32h3.54v14.94Z" transform="translate(-361.22 -136.68)" style="fill:#262424"/><path d="M420.66,151.88l-1.37-3.35H413l-1.37,3.35h-3.35l6.4-15h3l6.4,15Zm-4.52-11.1-2,4.85h4Z" transform="translate(-361.22 -136.68)" style="fill:#262424"/><path d="M428.11,151.88V136.93h11.27v2.92h-8v3h7v2.92h-7V149h8.11v2.92Z" transform="translate(-361.22 -136.68)" style="fill:#262424"/><path d="M449.44,152.09a9.51,9.51,0,0,1-6.34-2.39l1.94-2.33a6.86,6.86,0,0,0,4.46,1.81c1.34,0,2.16-.53,2.16-1.41v0c0-.83-.51-1.26-3-1.9-3-.77-5-1.6-5-4.57v0c0-2.71,2.18-4.5,5.23-4.5a8.65,8.65,0,0,1,5.55,1.9l-1.71,2.48a7,7,0,0,0-3.89-1.47c-1.26,0-1.92.58-1.92,1.3v0c0,1,.64,1.3,3.22,2,3,.79,4.74,1.88,4.74,4.48v0C454.92,150.42,452.66,152.09,449.44,152.09Z" transform="translate(-361.22 -136.68)" style="fill:#262424"/><path d="M465.94,140v11.91h-3.29V140h-4.55v-3h12.38v3Z" transform="translate(-361.22 -136.68)" style="fill:#262424"/><path d="M483.79,151.88l-3.2-4.78H478v4.78h-3.29V136.93h6.83c3.52,0,5.64,1.86,5.64,4.93v0a4.64,4.64,0,0,1-3.2,4.63l3.65,5.34Zm.06-9.84c0-1.41-1-2.13-2.58-2.13H478v4.29h3.33c1.6,0,2.52-.85,2.52-2.11Z" transform="translate(-361.22 -136.68)" style="fill:#262424"/><path d="M499.11,152.13a7.66,7.66,0,0,1-7.92-7.68v0a7.94,7.94,0,0,1,15.88,0v0A7.73,7.73,0,0,1,499.11,152.13Zm4.52-7.73a4.54,4.54,0,0,0-4.52-4.7,4.47,4.47,0,0,0-4.48,4.65v0a4.54,4.54,0,0,0,4.53,4.7,4.47,4.47,0,0,0,4.48-4.65Z" transform="translate(-361.22 -136.68)" style="fill:#262424"/></svg>